<?xml version="1.0" encoding="UTF-8"?>
<svg id="Layer_2" data-name="Layer 2" xmlns="http://www.w3.org/2000/svg" viewBox="0 0 878.34 938.29">
  <defs>
    <style>
      .cls-1 {
        fill: #4c9bf8;
      }

      .cls-2 {
        fill: #4862f7;
      }

      .cls-3 {
        fill: #2e6bff;
      }

      .cls-4 {
        fill: #00c2a8;
      }

      .cls-5 {
        fill: #65d7fb;
      }
    </style>
  </defs>
  <g id="Layer_3" data-name="Layer 3">
    <g>
      <g>
        <polygon class="cls-4" points="626.39 492.26 626.39 492.27 616.33 482.21 626.39 492.26"/>
        <path class="cls-4" d="M493.43,739.56c-.69-.56-1.35-1.16-2.02-1.78l.02-.02c.65.62,1.32,1.21,2,1.79Z"/>
        <path class="cls-4" d="M546.16,739.72c-1.09.9-2.2,1.72-3.36,2.48,1.14-.77,2.27-1.6,3.36-2.48Z"/>
        <path class="cls-4" d="M549.32,736.86v.02c-1.02,1.02-2.08,1.97-3.17,2.85,1.09-.9,2.15-1.85,3.17-2.87Z"/>
        <path class="cls-4" d="M559.86,674.91l-7.05,7.05c-.79-1.04-1.65-2.04-2.57-3.01l6.84-6.84,2.78,2.8Z"/>
        <polygon class="cls-4" points="570.34 685.34 570.34 685.36 565.27 680.33 570.34 685.34"/>
        <path class="cls-4" d="M587.05,702.03l-.02.02s-.09-.09-.12-.12l-16.57-16.57,16.57,16.55c.05.05.09.09.14.12Z"/>
        <polygon class="cls-4" points="689.87 555.73 689.85 555.75 681.64 547.55 681.66 547.54 689.87 555.73"/>
        <polygon class="cls-4" points="560.7 426.57 560.7 426.58 553.42 419.3 560.7 426.57"/>
        <polygon class="cls-4" points="583.36 449.22 583.36 449.24 567.54 433.43 567.56 433.43 583.36 449.22"/>
        <polygon class="cls-4" points="495.01 360.87 495.01 360.89 484.44 350.32 484.46 350.32 495.01 360.87"/>
        <polygon class="cls-4" points="514.39 380.26 514.39 380.27 501.85 367.73 514.39 380.26"/>
        <path class="cls-1" d="M117.29,618.45l-1.34,1.3c-5.36-5.96-10.57-12.05-15.58-18.22l16.92,16.92Z"/>
        <path class="cls-1" d="M180.02,680.87c-1.09-.88-2.15-1.83-3.17-2.85l-59.57-59.57,59.57,59.55c1.02,1.02,2.08,1.97,3.17,2.87Z"/>
        <path class="cls-1" d="M183.38,683.35c-1.14-.76-2.27-1.58-3.36-2.48,1.09.88,2.22,1.71,3.36,2.48Z"/>
        <path class="cls-1" d="M232.54,680.87c-1.09.9-2.22,1.72-3.36,2.48,1.14-.77,2.27-1.6,3.36-2.48Z"/>
        <path class="cls-1" d="M235.71,678.01v.02c-1.02,1.02-2.08,1.97-3.17,2.85,1.09-.9,2.15-1.85,3.17-2.87Z"/>
        <path class="cls-1" d="M380.02,746.28c-1.13-.33-2.23-.7-3.34-1.14,1.11.42,2.22.81,3.34,1.14Z"/>
        <path class="cls-1" d="M407.07,745.14c-1.11.44-2.22.81-3.34,1.14,1.13-.33,2.23-.72,3.34-1.14Z"/>
        <path class="cls-4" d="M867.39,324.29c13.86,16.34,13.07,40.86-2.34,56.28l-2.18,2.16v.05l-124.67,124.63,5.03,5.03,5.17-5.17c16.25-16.25,42.6-16.25,58.85,0,4.92,4.94,8.39,10.8,10.31,17.06v.05c4.43,14.25,1.02,30.43-10.31,41.74l-54.68,54.68-251.39,251.44-.72-.7-66.71,66.75-301.99-301.94c-5.42-5.42-10.69-10.97-15.81-16.6l1.34-1.3,59.57,59.57c1.02,1.02,2.08,1.97,3.17,2.85,1.09.9,2.22,1.72,3.36,2.48,2.88,1.9,5.96,3.41,9.15,4.52,1.27.46,2.55.83,3.85,1.14,6.49,1.58,13.31,1.58,19.8,0,1.3-.32,2.59-.69,3.85-1.14,3.18-1.11,6.26-2.62,9.15-4.52,1.14-.76,2.27-1.58,3.36-2.48,1.09-.88,2.15-1.83,3.17-2.85v-.02c15.42-15.42,16.22-40,2.32-56.33l5.14-5.14,119.27,119.27c.51.51,1.02,1,1.55,1.48,1.06.95,2.15,1.85,3.27,2.67,2.95,2.16,6.12,3.89,9.43,5.19,1.11.44,2.22.81,3.34,1.14,7.72,2.27,15.99,2.27,23.71,0,1.13-.33,2.23-.7,3.34-1.14,3.31-1.3,6.47-3.02,9.43-5.19,1.13-.83,2.22-1.72,3.27-2.67.53-.47,1.04-.97,1.55-1.48.51-.51,1-1.02,1.48-1.55.95-1.06,1.85-2.15,2.67-3.27,2.16-2.96,3.9-6.12,5.19-9.43.44-1.11.81-2.22,1.14-3.34,2.29-7.72,2.29-15.99,0-23.71-.72-2.48-1.69-4.89-2.88-7.21l5.98-5.98,55.58,55.56c.3.3.62.62.93.91.67.62,1.34,1.21,2.02,1.78h.02c.69.58,1.39,1.13,2.11,1.64,3.92,2.83,8.23,4.91,12.68,6.19.6.18,1.18.33,1.78.47.76.19,1.51.35,2.27.49.18.04.35.07.53.09.83.16,1.67.26,2.5.37,4.84.53,9.76.23,14.51-.95,1.3-.32,2.59-.69,3.85-1.14,3.18-1.11,6.24-2.62,9.13-4.52,1.16-.76,2.27-1.58,3.36-2.48,1.09-.88,2.15-1.83,3.17-2.85v-.02c11.15-11.13,14.67-27,10.54-41.07-1.44-4.89-3.8-9.6-7.05-13.82l7.05-7.05,5.42,5.42,5.07,5.03,16.57,16.57s.09.09.12.12c9.76,9.69,23.13,13.54,35.76,11.54.35-.05.7-.11,1.06-.18.97-.18,1.93-.39,2.88-.63,1.14-.28,2.27-.63,3.38-1.02.63-.21,1.27-.46,1.9-.7.63-.25,1.25-.53,1.86-.81,4.31-1.99,8.34-4.77,11.89-8.32v-.02c16.2-16.2,16.25-42.44.12-58.71-.04-.05-.07-.09-.12-.14l-4.03-4.03,6.82-6.84h.02l4.15,4.17h.02l12.03,12.03c.51.51,1.02,1,1.55,1.48,1.06.95,2.15,1.85,3.27,2.67,2.94,2.16,6.1,3.89,9.41,5.19,1.11.44,2.22.81,3.34,1.14.97.28,1.93.53,2.92.76.97.21,1.95.39,2.94.53,2.59.37,5.19.49,7.79.39,1.34-.07,2.69-.19,4.05-.37.44-.07.88-.14,1.34-.21,1.42-.26,2.85-.58,4.26-.98.35-.09.69-.19,1.04-.32.44-.11.88-.25,1.3-.42.79-.26,1.58-.58,2.36-.9,2.32-.98,4.59-2.18,6.75-3.61.58-.39,1.16-.79,1.72-1.2,1.13-.83,2.22-1.72,3.27-2.67.53-.47,1.04-.97,1.55-1.48,13.4-13.4,15.76-33.68,7.04-49.49-.02,0-.02-.02-.02-.02-.23-.42-.46-.83-.7-1.25-.49-.83-1.02-1.64-1.57-2.43-1.39-1.99-2.97-3.89-4.75-5.66l-28.74-28.74-5.01-5.07-8.21-8.2-35.41-35.37v-.02l-15.28-15.27-4.57-4.61v-.02l-10.06-10.04v-.02l-32.98-32.96v-.02l-15.79-15.79h-.02l-6.84-6.84v-.02l-7.28-7.26v-.02l-39.03-39.01v-.02l-12.54-12.52v-.02l-6.84-6.82v-.02l-10.55-10.55h-.02l-48.28-48.28v-.02L718.82,19.36c6.79-6.79,15.37-10.78,24.2-11.85,12.31-1.55,25.19,2.39,34.65,11.85,11.59,11.59,14.93,28.3,9.99,42.83-1.99,5.86-5.33,11.36-9.99,16.02l-12.91,12.93,6.84,6.84.74-.76c8.3-8.3,19.24-12.38,30.16-12.17,10.39.18,20.74,4.22,28.69,12.17,14.7,14.7,16.13,37.62,4.22,53.89-1.25,1.72-2.66,3.41-4.22,4.96l-32.2,32.2,6.86,6.86,1.46-1.48c10.66-10.66,25.71-14.35,39.34-11.01,7.16,1.78,13.89,5.42,19.5,11.01,16.25,16.25,16.25,42.6,0,58.85l-3.03,3.03-55.31,55.31,5.28,5.28c16.11-10.39,37.83-8.55,51.96,5.54.83.84,1.64,1.69,2.34,2.57v.05Z"/>
        <path class="cls-4" d="M431.8,694.5c-.74-2.46-1.71-4.87-2.9-7.19-.74-1.44-1.57-2.87-2.48-4.22.93,1.35,1.76,2.76,2.5,4.2,1.2,2.32,2.16,4.73,2.88,7.21Z"/>
        <path class="cls-4" d="M431.8,718.21c-.33,1.13-.7,2.23-1.14,3.34.42-1.11.81-2.22,1.14-3.34Z"/>
        <path class="cls-4" d="M559.86,674.91l-7.05,7.05c-.79-1.04-1.65-2.04-2.57-3.01l6.84-6.84,2.78,2.8Z"/>
        <path class="cls-3" d="M723.62,648.39c-.51.51-1.02,1-1.55,1.48-1.06.95-2.15,1.85-3.27,2.67-.56.4-1.14.81-1.72,1.2-2.16,1.42-4.43,2.62-6.75,3.61-.77.32-1.57.62-2.36.9-.44.16-.86.3-1.3.42-.35.12-.69.23-1.04.32-1.41.4-2.83.72-4.26.98-.46.07-.9.14-1.34.21-1.35.18-2.71.3-4.05.37-2.6.11-5.21-.02-7.79-.39-.99-.14-1.97-.32-2.94-.53-.99-.23-1.95-.47-2.92-.76-1.13-.33-2.23-.72-3.34-1.14-3.31-1.3-6.47-3.03-9.41-5.19-1.13-.83-2.22-1.72-3.27-2.67-.53-.47-1.04-.97-1.55-1.48l-12.03-12.03h-.02l-4.15-4.17h-.02l-6.82,6.84,4.03,4.03c.05.05.09.09.12.14,16.13,16.27,16.08,42.51-.12,58.71-3.55,3.55-7.6,6.33-11.89,8.34-.62.28-1.23.56-1.86.81-.63.25-1.27.49-1.9.7-1.11.39-2.23.74-3.38,1.02-.95.25-1.92.46-2.88.63-.35.07-.7.12-1.06.18-12.63,1.97-25.98-1.88-35.74-11.56-.05-.04-.09-.07-.14-.12l-16.57-16.55v-.02l-5.07-5.01-5.42-5.42-2.78-2.8-6.84,6.84c.91.97,1.78,1.97,2.57,3.01,3.25,4.22,5.61,8.93,7.05,13.82,4.13,14.07.62,29.94-10.54,41.07-1.02,1.02-2.08,1.97-3.17,2.87-1.09.88-2.22,1.71-3.36,2.48-2.88,1.9-5.95,3.41-9.13,4.52-1.27.46-2.55.83-3.85,1.14-4.75,1.18-9.67,1.48-14.51.95-.83-.11-1.67-.23-2.5-.37-.18-.02-.35-.05-.53-.09-.76-.14-1.51-.3-2.27-.49-.6-.14-1.18-.3-1.78-.47-4.45-1.28-8.76-3.36-12.68-6.19-.72-.53-1.42-1.07-2.11-1.64h-.02c-.69-.58-1.35-1.18-2-1.79-.32-.3-.63-.6-.95-.91l-55.58-55.56v.02l-5.98,5.98c-.74-1.44-1.57-2.85-2.5-4.2.91,1.35,1.74,2.78,2.48,4.22,1.2,2.32,2.16,4.73,2.9,7.19,2.29,7.72,2.29,15.99,0,23.71-.33,1.13-.72,2.23-1.14,3.34-1.28,3.31-3.03,6.47-5.19,9.43-.83,1.13-1.72,2.22-2.67,3.27-.47.53-.97,1.04-1.48,1.55-.51.51-1.02,1-1.55,1.48-1.06.95-2.15,1.85-3.27,2.67-2.95,2.16-6.12,3.89-9.43,5.19-1.11.42-2.22.81-3.34,1.14-7.72,2.27-15.99,2.27-23.71,0-1.13-.33-2.23-.72-3.34-1.14-3.31-1.3-6.47-3.02-9.43-5.19-1.13-.83-2.22-1.72-3.27-2.67-.53-.47-1.04-.97-1.55-1.48l-119.27-119.27-5.14,5.14c13.89,16.34,13.1,40.91-2.32,56.33-1.02,1.02-2.08,1.97-3.17,2.87-1.09.88-2.22,1.71-3.36,2.48-2.88,1.9-5.96,3.41-9.15,4.52-1.27.46-2.55.83-3.85,1.14-6.49,1.58-13.31,1.58-19.8,0-1.3-.32-2.59-.69-3.85-1.14-3.18-1.11-6.26-2.62-9.15-4.52-1.14-.77-2.27-1.6-3.36-2.48-1.09-.9-2.15-1.85-3.17-2.87l-59.57-59.55-16.92-16.92c-51.16-62.95-82.75-136.5-94.78-212.54C-16.22,251.53,25.85,105.93,131.78,0l284.61,284.61,17.36,17.38,1.25,1.25v-.02l1.16-1.18,48.28,48.28,10.57,10.57,6.84,6.82v.02l124.54,124.54,4.57,4.61,15.28,15.27v.02l35.39,35.39,8.21,8.2.02-.02,5.01,5.07,28.74,28.74c1.78,1.78,3.36,3.68,4.75,5.66.54.79,1.07,1.6,1.57,2.43.25.42.47.83.7,1.25,0,0,0,.02.02.02,8.72,15.81,6.37,36.09-7.04,49.49Z"/>
        <polygon class="cls-3" points="435 303.22 435 303.24 433.75 301.99 435 303.22"/>
        <path class="cls-3" d="M431.8,694.5c-.74-2.46-1.71-4.87-2.9-7.19-.74-1.44-1.57-2.87-2.48-4.22.93,1.35,1.76,2.76,2.5,4.2,1.2,2.32,2.16,4.73,2.88,7.21Z"/>
        <path class="cls-3" d="M431.8,718.21c-.33,1.13-.7,2.23-1.14,3.34.42-1.11.81-2.22,1.14-3.34Z"/>
        <polygon class="cls-3" points="495.01 360.87 495.01 360.89 484.44 350.32 484.46 350.32 495.01 360.87"/>
        <polygon class="cls-3" points="514.39 380.26 514.39 380.27 501.85 367.73 514.39 380.26"/>
        <polygon class="cls-3" points="553.42 419.28 553.42 419.3 514.39 380.27 553.42 419.28"/>
        <polygon class="cls-3" points="560.7 426.57 560.7 426.58 553.42 419.3 560.7 426.57"/>
        <polygon class="cls-3" points="583.36 449.22 583.36 449.24 567.54 433.43 567.56 433.43 583.36 449.22"/>
        <polygon class="cls-3" points="616.33 482.2 616.33 482.21 583.36 449.24 616.33 482.2"/>
        <polygon class="cls-3" points="626.39 492.26 626.39 492.27 616.33 482.21 626.39 492.26"/>
        <polygon class="cls-3" points="689.87 555.73 689.85 555.75 681.64 547.55 646.25 512.17 681.66 547.54 689.87 555.73"/>
        <polygon class="cls-5" points="436.16 302.04 435 303.22 435 303.24 433.75 301.99 434.91 300.79 436.16 302.04"/>
        <polygon class="cls-2" points="436.16 302.02 436.16 302.04 435 303.22 433.75 301.99 434.91 300.79 436.16 302.02"/>
        <g>
          <polygon class="cls-4" points="495.01 360.87 495.01 360.89 484.44 350.32 484.46 350.32 495.01 360.87"/>
          <polygon class="cls-4" points="514.39 380.26 514.39 380.27 501.85 367.73 514.39 380.26"/>
          <polygon class="cls-4" points="553.42 419.28 553.42 419.3 514.39 380.27 553.42 419.28"/>
          <polygon class="cls-4" points="560.7 426.57 560.7 426.58 553.42 419.3 560.7 426.57"/>
          <polygon class="cls-4" points="583.36 449.22 583.36 449.24 567.54 433.43 567.56 433.43 583.36 449.22"/>
          <polygon class="cls-4" points="616.33 482.2 616.33 482.21 583.36 449.24 616.33 482.2"/>
          <polygon class="cls-4" points="626.39 492.26 626.39 492.27 616.33 482.21 626.39 492.26"/>
          <polygon class="cls-4" points="689.87 555.73 689.85 555.75 681.64 547.55 646.25 512.17 681.66 547.54 689.87 555.73"/>
        </g>
      </g>
      <path class="cls-3" d="M559.86,674.91l-7.05,7.05c-.79-1.04-1.65-2.04-2.57-3.01l6.84-6.84,2.78,2.8Z"/>
      <path class="cls-3" d="M428.91,687.29l-.02.02c-.74-1.44-1.57-2.87-2.48-4.22.93,1.35,1.76,2.76,2.5,4.2Z"/>
    </g>
  </g>
</svg>